<svg xmlns="http://www.w3.org/2000/svg" width="48" height="48" viewBox="0 0 48 48"><defs><style>.a{opacity:0.44;}.b{fill:none;}</style></defs><g class="a" transform="translate(0.094 0.094)"><rect class="b" width="48" height="48" transform="translate(-0.094 -0.094)"/><path d="M5.977,6.977V1H9.961V6.977h5.977v3.984H9.961v5.977H5.977V10.961H0V6.977ZM11.953,18.93V12.953H17.93V6.977H31.875l3.646,3.984h6.315a4,4,0,0,1,3.984,3.984V38.852a4,4,0,0,1-3.984,3.984H9.961a4,4,0,0,1-3.984-3.984V18.93ZM25.9,36.859A9.961,9.961,0,1,0,15.938,26.9,9.965,9.965,0,0,0,25.9,36.859ZM19.523,26.9A6.375,6.375,0,1,0,25.9,20.523,6.368,6.368,0,0,0,19.523,26.9Z" transform="translate(0 0.992)"/></g></svg>