<svg xmlns="http://www.w3.org/2000/svg" width="24" height="24" viewBox="0 0 24 24"><defs><style>.a{fill:none;}.b{fill:#0f5eea;}</style></defs><path class="a" d="M0,0H24V24H0Z"/><path class="b" d="M20.6,6.175H18.347a3.165,3.165,0,0,0,.186-1.044A3.09,3.09,0,0,0,12.85,3.409l-.517.7-.517-.71A3.095,3.095,0,0,0,6.133,5.132a3.165,3.165,0,0,0,.186,1.044H4.067A2.061,2.061,0,0,0,2.01,8.263L2,19.746a2.07,2.07,0,0,0,2.067,2.088H20.6a2.07,2.07,0,0,0,2.067-2.088V8.263A2.07,2.07,0,0,0,20.6,6.175ZM15.433,4.088A1.044,1.044,0,1,1,14.4,5.132,1.042,1.042,0,0,1,15.433,4.088Zm-6.2,0A1.044,1.044,0,1,1,8.2,5.132,1.042,1.042,0,0,1,9.233,4.088ZM19.567,19.746H5.1A1.042,1.042,0,0,1,4.067,18.7V17.658H20.6V18.7A1.042,1.042,0,0,1,19.567,19.746ZM20.6,14.526H4.067V9.307A1.042,1.042,0,0,1,5.1,8.263H9.316L7.787,10.372a1.045,1.045,0,0,0,.227,1.461A1.029,1.029,0,0,0,9.45,11.6l2.883-3.967L15.216,11.6a1.029,1.029,0,0,0,1.436.23,1.045,1.045,0,0,0,.227-1.461L15.351,8.263h4.216A1.042,1.042,0,0,1,20.6,9.307Z" transform="translate(-0.333 -0.333)"/></svg>