<svg xmlns="http://www.w3.org/2000/svg" width="13.969" height="13.969" viewBox="0 0 13.969 13.969"><defs><style>.a{opacity:0.84;}</style></defs><g class="a"><path d="M6.984,0a6.984,6.984,0,1,0,6.985,6.984A6.985,6.985,0,0,0,6.984,0ZM8.438,10.824q-.539.213-.86.324a2.27,2.27,0,0,1-.746.112,1.487,1.487,0,0,1-1.015-.319,1.028,1.028,0,0,1-.361-.808,2.936,2.936,0,0,1,.027-.39c.018-.132.047-.281.087-.449l.45-1.589c.04-.153.074-.3.1-.432A1.916,1.916,0,0,0,6.16,6.9a.576.576,0,0,0-.125-.424.712.712,0,0,0-.481-.119,1.262,1.262,0,0,0-.358.053c-.121.037-.226.071-.313.1L5,6.024q.442-.18.846-.308a2.5,2.5,0,0,1,.763-.129,1.459,1.459,0,0,1,1,.313,1.041,1.041,0,0,1,.351.814q0,.1-.024.365a2.441,2.441,0,0,1-.09.48L7.4,9.143c-.037.127-.069.273-.1.435a2.3,2.3,0,0,0-.043.37.532.532,0,0,0,.141.43.791.791,0,0,0,.489.115,1.418,1.418,0,0,0,.37-.057,2.1,2.1,0,0,0,.3-.1ZM8.359,4.393a1.068,1.068,0,0,1-.754.291,1.079,1.079,0,0,1-.757-.291.929.929,0,0,1-.315-.705.938.938,0,0,1,.315-.707A1.072,1.072,0,0,1,7.6,2.686a1.06,1.06,0,0,1,.754.294.953.953,0,0,1,0,1.413Z" transform="translate(0 0)"/></g></svg>