<svg xmlns="http://www.w3.org/2000/svg" width="24" height="24" viewBox="0 0 24 24"><defs><style>.a{fill:#0f5eea;}.b{fill:none;}</style></defs><g transform="translate(5.816 4.033)"><path class="a" d="M65.538.524a.854.854,0,0,0-.929.141L63.272,1.849a.1.1,0,0,1-.127,0L61.324.221a.867.867,0,0,0-1.157,0L58.349,1.847a.1.1,0,0,1-.128,0L56.4.221a.867.867,0,0,0-1.157,0l-1.82,1.628a.1.1,0,0,1-.128,0L51.959.665a.861.861,0,0,0-1.433.65V19.073a.862.862,0,0,0,1.435.65L53.3,18.538a.1.1,0,0,1,.127,0l1.82,1.628a.867.867,0,0,0,1.157,0l1.818-1.626a.1.1,0,0,1,.128,0l1.818,1.626a.867.867,0,0,0,1.157,0l1.82-1.628a.1.1,0,0,1,.128,0l1.339,1.184a.861.861,0,0,0,1.432-.65V1.315A.853.853,0,0,0,65.538.524ZM53.717,6.917h4.8a.386.386,0,1,1,0,.771h-4.8a.386.386,0,1,1,0-.771Zm9.136,6.554H53.717a.386.386,0,1,1,0-.771h9.136a.386.386,0,1,1,0,.771Zm0-2.891H53.717a.386.386,0,1,1,0-.771h9.136a.386.386,0,1,1,0,.771Z" transform="translate(-52.586 -1.706)"/><path class="b" d="M0,0H24V24H0Z" transform="translate(-5.816 -4.033)"/></g></svg>