<svg xmlns="http://www.w3.org/2000/svg" width="24" height="24" viewBox="0 0 24 24"><defs><style>.a{fill:none;}.b{fill:#0f5eea;}</style></defs><path class="a" d="M0,0H24V24H0Z"/><g transform="translate(1.189 1.478)"><path class="b" d="M88.14,183.193v1.283H98.37v-1.283a4.348,4.348,0,0,0-4.344-4.343h-1.54A4.348,4.348,0,0,0,88.14,183.193Z" transform="translate(-83.454 -164.348)"/><path class="a" d="M66.5,109.81a.587.587,0,0,0-.587.587v8.669a.587.587,0,0,0,.587.587h8.3a.587.587,0,0,0,.587-.587V110.4a.587.587,0,0,0-.587-.587Zm2.94,4.768a1.9,1.9,0,1,1,2.054,0l-.073.048.086.019a2.793,2.793,0,0,1,2.177,2.71v.88a.147.147,0,0,1-.147.147H67.394a.147.147,0,0,1-.147-.147v-.88a2.793,2.793,0,0,1,2.177-2.71l.086-.019Z" transform="translate(-60.663 -99.281)"/><path class="a" d="M182.457,109.81h-.367a.587.587,0,0,1,.587.587v8.669a.587.587,0,0,1-.587.587h.367a.587.587,0,0,0,.587-.587V110.4A.587.587,0,0,0,182.457,109.81Z" transform="translate(-168.321 -99.281)"/><path class="b" d="M109.161,136.689h0a2.817,2.817,0,1,0-.588,0Z" transform="translate(-99.065 -122.7)"/><path class="b" d="M48.617,18h2.053a.943.943,0,0,0,.943-.943V12.943A.943.943,0,0,0,50.671,12l-19.924.943.5,4.394L43.716,18a.236.236,0,0,1,.236.236v2.843l4.54-3.045A.236.236,0,0,1,48.617,18Zm-4.6-3.177-.682.665.161.943a.236.236,0,0,1-.342.249l-.843-.443-.838.44a.236.236,0,0,1-.342-.249l.161-.943-.682-.665a.236.236,0,0,1,.131-.4l.943-.137.422-.855a.236.236,0,0,1,.423,0l.422.855.943.137a.236.236,0,0,1,.128.407Zm3.274,1.6.161-.943-.675-.659a.236.236,0,0,1,.131-.4l.943-.137.422-.855a.236.236,0,0,1,.423,0l.422.855.943.137a.236.236,0,0,1,.131.4l-.682.665.161.943a.236.236,0,0,1-.342.249l-.843-.443-.843.443a.236.236,0,0,1-.345-.253Zm-9.441-1.6-.682.665.161.943a.236.236,0,0,1-.342.249l-.843-.443-.843.443a.236.236,0,0,1-.342-.249l.161-.943-.682-.665a.236.236,0,0,1,.131-.4l.943-.137.421-.853a.236.236,0,0,1,.423,0l.422.855.943.137a.236.236,0,0,1,.136.4Z" transform="translate(-30.747 -12)"/><path class="a" d="M87.942,130.135a1.939,1.939,0,1,0-2.1,0,2.817,2.817,0,0,0-2.206,2.745v.88a.183.183,0,0,0,.183.183h6.14a.183.183,0,0,0,.183-.183v-.88A2.817,2.817,0,0,0,87.942,130.135ZM85.321,128.5a1.573,1.573,0,1,1,1.738,1.563h-.332A1.574,1.574,0,0,1,85.321,128.5Zm4.459,5.075H84.007v-.7a2.448,2.448,0,0,1,2.447-2.443h.88a2.448,2.448,0,0,1,2.445,2.445Z" transform="translate(-77.092 -114.806)"/><path class="a" d="M57.327,105.31a.918.918,0,0,0-.917.917V114.9a.918.918,0,0,0,.917.917H66a.918.918,0,0,0,.917-.917v-8.669A.918.918,0,0,0,66,105.31Zm9.219.917V114.9a.551.551,0,0,1-.55.55H57.327a.551.551,0,0,1-.55-.55v-8.669a.551.551,0,0,1,.55-.55H66a.551.551,0,0,1,.55.55Z" transform="translate(-51.859 -95.111)"/></g></svg>