<svg xmlns="http://www.w3.org/2000/svg" width="24" height="24" viewBox="0 0 24 24"><defs><style>.a{fill:none;}.b{fill:#0f5eea;}</style></defs><path class="a" d="M0,0H24V24H0Z"/><path class="b" d="M19.209,14.356V8.139A2.6,2.6,0,0,0,20.51,5.9a.65.65,0,0,0-.143-.4L18.351,2.976A2.6,2.6,0,0,0,16.322,2H5.188a2.6,2.6,0,0,0-2.029.976L1.143,5.5A.65.65,0,0,0,1,5.9,2.6,2.6,0,0,0,2.3,8.139v8.819a.65.65,0,0,0,.65.65H14.072a3.252,3.252,0,1,0,5.138-3.252ZM3.6,8.5A2.6,2.6,0,0,0,5.39,7.794a2.6,2.6,0,0,0,3.577,0,2.6,2.6,0,0,0,3.577,0,2.6,2.6,0,0,0,3.577,0,2.6,2.6,0,0,0,1.788.709v5.268a3.252,3.252,0,0,0-3.837,2.536H3.6ZM17.258,18.909a1.951,1.951,0,1,1,1.951-1.951,1.951,1.951,0,0,1-1.951,1.951Z" transform="translate(1.245 0.895)"/><path class="b" d="M.8,0A.8.8,0,1,1,0,.8.8.8,0,0,1,.8,0Z" transform="translate(18.434 17.63)"/></svg>